<svg xmlns="http://www.w3.org/2000/svg" viewBox="0 0 96 96" fill="context-fill" fill-opacity="context-fill-opacity"><path d="M38.089 29.274l-8.813 8.813a4.261 4.261 0 0 0-1.257 3.033c0 1.146.446 2.224 1.257 3.033L43.612 58.49a4.26 4.26 0 0 0 3.033 1.259h.001a4.257 4.257 0 0 0 3.033-1.258l7.629-7.629a1.5 1.5 0 1 0-2.121-2.121l-7.63 7.629a1.278 1.278 0 0 1-.911.379h-.001a1.28 1.28 0 0 1-.911-.379L31.396 42.032a1.276 1.276 0 0 1-.378-.911c0-.344.134-.667.378-.911l8.813-8.814a1.294 1.294 0 0 1 1.825 0l6.97 6.973a1.5 1.5 0 1 0 2.121-2.121l-6.97-6.974a4.296 4.296 0 0 0-6.066 0zm32.637 26.571L56.389 41.506a4.3 4.3 0 0 0-6.068.001l-7.628 7.631a1.5 1.5 0 1 0 2.121 2.121l7.628-7.63a1.293 1.293 0 0 1 1.826-.001l14.336 14.338c.503.503.503 1.322.001 1.825l-8.814 8.812c-.243.244-.567.379-.912.379s-.668-.135-.912-.379l-6.971-6.971a1.5 1.5 0 1 0-2.121 2.121l6.97 6.97a4.26 4.26 0 0 0 3.033 1.259h.001a4.26 4.26 0 0 0 3.034-1.258l8.814-8.812a4.299 4.299 0 0 0-.001-6.067zM22.663 21.959a1.5 1.5 0 0 0 1.02-.399 39 39 0 0 1 5.034-3.945 1.502 1.502 0 0 0 .428-2.078 1.502 1.502 0 0 0-2.078-.428 42.07 42.07 0 0 0-5.423 4.25 1.5 1.5 0 0 0 1.019 2.6zm-8.827 10.289a1.499 1.499 0 0 0 2.032-.608 38.802 38.802 0 0 1 3.491-5.361 1.499 1.499 0 0 0-.265-2.104 1.498 1.498 0 0 0-2.104.265 41.834 41.834 0 0 0-3.763 5.777 1.499 1.499 0 0 0 .609 2.031zm32.712-20.851c.043 0 .086-.002.129-.006a39.844 39.844 0 0 1 6.399-.021c.806.081 1.548-.553 1.611-1.379a1.498 1.498 0 0 0-1.379-1.611 42.43 42.43 0 0 0-6.886.023 1.5 1.5 0 1 0 .126 2.994zm-12.825 3.282c.203 0 .409-.041.606-.128a38.62 38.62 0 0 1 6.042-2.095 1.5 1.5 0 1 0-.744-2.906 41.564 41.564 0 0 0-6.513 2.257 1.502 1.502 0 0 0 .609 2.872zM10.037 44.946a1.5 1.5 0 0 0 1.722-1.239c.344-2.104.865-4.19 1.551-6.201a1.499 1.499 0 0 0-.936-1.904 1.497 1.497 0 0 0-1.904.936 41.516 41.516 0 0 0-1.672 6.688 1.498 1.498 0 0 0 1.239 1.72zm73.979-13.519a1.5 1.5 0 0 0 2.633-1.44 41.976 41.976 0 0 0-3.796-5.752 1.499 1.499 0 1 0-2.359 1.853 39.05 39.05 0 0 1 3.522 5.339zM59.388 12.396a38.587 38.587 0 0 1 6.058 2.056 1.502 1.502 0 0 0 1.975-.777 1.503 1.503 0 0 0-.777-1.975 41.808 41.808 0 0 0-6.53-2.216 1.5 1.5 0 0 0-1.818 1.094 1.498 1.498 0 0 0 1.092 1.818zm27.221 24.872a38.806 38.806 0 0 1 1.592 6.194 1.5 1.5 0 0 0 2.958-.503 41.728 41.728 0 0 0-1.715-6.675 1.5 1.5 0 1 0-2.835.984zM71.081 17.482a39.081 39.081 0 0 1 5.061 3.915c.288.264.65.394 1.013.394a1.498 1.498 0 0 0 1.012-2.606 42.076 42.076 0 0 0-5.451-4.218 1.499 1.499 0 1 0-1.635 2.515zM90.25 48.329a1.5 1.5 0 0 0-1.5 1.5v.172a39.32 39.32 0 0 1-.521 6.376 1.5 1.5 0 1 0 2.959.491 42.19 42.19 0 0 0 .563-6.866v-.172a1.502 1.502 0 0 0-1.501-1.501zm-7.554 25.2a1.5 1.5 0 0 0-2.105.262 39.251 39.251 0 0 1-4.332 4.708 1.5 1.5 0 1 0 2.034 2.205 42.246 42.246 0 0 0 4.666-5.069 1.502 1.502 0 0 0-.263-2.106zM59.55 87.565c-2.058.521-4.18.876-6.308 1.052a1.5 1.5 0 0 0 .248 2.99 41.745 41.745 0 0 0 6.798-1.134 1.5 1.5 0 0 0-.738-2.908zm11.664-5.131a38.701 38.701 0 0 1-5.619 3.052 1.5 1.5 0 0 0 1.209 2.747 41.708 41.708 0 0 0 6.055-3.288 1.5 1.5 0 0 0-1.645-2.511zm17.355-20.788a1.497 1.497 0 0 0-1.905.933 38.658 38.658 0 0 1-2.57 5.857 1.497 1.497 0 0 0 1.318 2.215c.532 0 1.048-.284 1.319-.785a41.55 41.55 0 0 0 2.771-6.314 1.5 1.5 0 0 0-.933-1.906zM34.478 85.518a38.934 38.934 0 0 1-5.629-3.042 1.5 1.5 0 0 0-1.638 2.512 41.78 41.78 0 0 0 6.064 3.278 1.5 1.5 0 0 0 1.203-2.748zM13.362 62.656a1.5 1.5 0 0 0-2.836.978 41.725 41.725 0 0 0 2.782 6.304 1.5 1.5 0 0 0 2.635-1.436 38.579 38.579 0 0 1-2.581-5.846zm6.094 11.194a1.5 1.5 0 1 0-2.363 1.847 41.853 41.853 0 0 0 4.675 5.061c.288.265.651.396 1.015.396a1.498 1.498 0 0 0 1.014-2.604 39.317 39.317 0 0 1-4.341-4.7zm27.386 14.775a38.862 38.862 0 0 1-6.311-1.038 1.5 1.5 0 0 0-.73 2.91c2.219.557 4.507.934 6.801 1.118a1.5 1.5 0 0 0 .24-2.99zM11.786 56.46a39.085 39.085 0 0 1-.536-6.375 1.5 1.5 0 0 0-1.5-1.497h-.003a1.5 1.5 0 0 0-1.497 1.503 42.16 42.16 0 0 0 .577 6.865 1.501 1.501 0 0 0 2.959-.496z"/></svg>
