<svg xmlns="http://www.w3.org/2000/svg" xmlns:xlink="http://www.w3.org/1999/xlink" version="1.1" x="0px" y="0px" viewBox="0 0 100 125" enable-background="new 0 0 100 100" xml:space="preserve" fill="context-fill" fill-opacity="context-fill-opacity"><path d="M38.089,29.274l-8.813,8.813c-0.811,0.811-1.257,1.888-1.257,3.033c0,1.146,0.446,2.224,1.257,3.033L43.612,58.49  c0.81,0.812,1.887,1.258,3.033,1.259c0,0,0,0,0.001,0c1.146,0,2.224-0.447,3.033-1.258l7.629-7.629c0.586-0.586,0.586-1.535,0-2.121  s-1.535-0.586-2.121,0l-7.63,7.629c-0.243,0.244-0.567,0.379-0.911,0.379h-0.001c-0.344,0-0.667-0.135-0.911-0.379L31.396,42.032  c-0.244-0.243-0.378-0.566-0.378-0.911c0-0.344,0.134-0.667,0.378-0.911l8.813-8.814c0.504-0.503,1.321-0.501,1.825,0l6.97,6.973  c0.586,0.586,1.535,0.586,2.121,0c0.586-0.585,0.586-1.535,0-2.121l-6.97-6.974C42.482,27.602,39.761,27.603,38.089,29.274z   M70.726,55.845L56.389,41.506c-1.674-1.67-4.395-1.671-6.068,0.001l-7.628,7.631c-0.586,0.586-0.586,1.536,0,2.121  c0.586,0.586,1.535,0.586,2.121,0l7.628-7.63c0.504-0.504,1.322-0.503,1.826-0.001l14.336,14.338  c0.503,0.503,0.503,1.322,0.001,1.825l-8.814,8.812c-0.243,0.244-0.567,0.379-0.912,0.379s-0.668-0.135-0.912-0.379l-6.971-6.971  c-0.586-0.586-1.535-0.586-2.121,0s-0.586,1.535,0,2.121l6.97,6.97c0.81,0.812,1.887,1.258,3.033,1.259h0.001  c1.146,0,2.225-0.447,3.034-1.258l8.814-8.812C72.397,60.239,72.397,57.518,70.726,55.845z M22.663,21.959  c0.365,0,0.73-0.132,1.02-0.399c1.563-1.448,3.258-2.775,5.034-3.945c0.691-0.456,0.883-1.386,0.428-2.078  c-0.455-0.691-1.384-0.882-2.078-0.428c-1.913,1.26-3.738,2.69-5.423,4.25c-0.607,0.563-0.644,1.512-0.081,2.12  C21.858,21.798,22.26,21.959,22.663,21.959z M13.836,32.248c0.227,0.122,0.471,0.18,0.711,0.18c0.533,0,1.05-0.285,1.321-0.788  c1.012-1.877,2.187-3.681,3.491-5.361c0.508-0.654,0.39-1.597-0.265-2.104c-0.653-0.509-1.598-0.39-2.104,0.265  c-1.406,1.812-2.673,3.755-3.763,5.777C12.834,30.945,13.106,31.854,13.836,32.248z M46.548,11.397c0.043,0,0.086-0.002,0.129-0.006  c2.092-0.177,4.271-0.187,6.399-0.021c0.806,0.081,1.548-0.553,1.611-1.379c0.064-0.826-0.553-1.548-1.379-1.611  c-2.289-0.18-4.635-0.17-6.886,0.023c-0.825,0.069-1.438,0.796-1.367,1.621C45.122,10.807,45.777,11.397,46.548,11.397z   M33.723,14.679c0.203,0,0.409-0.041,0.606-0.128c1.947-0.862,3.979-1.567,6.042-2.095c0.803-0.205,1.286-1.022,1.081-1.825  c-0.206-0.803-1.023-1.288-1.825-1.081c-2.223,0.568-4.414,1.328-6.513,2.257c-0.757,0.336-1.1,1.222-0.765,1.979  C32.598,14.346,33.146,14.679,33.723,14.679z M10.037,44.946c0.081,0.014,0.163,0.02,0.243,0.02c0.722,0,1.358-0.522,1.479-1.259  c0.344-2.104,0.865-4.19,1.551-6.201c0.268-0.784-0.151-1.637-0.936-1.904c-0.79-0.269-1.637,0.152-1.904,0.936  c-0.739,2.169-1.302,4.419-1.672,6.688C8.664,44.042,9.219,44.813,10.037,44.946z M84.016,31.427c0.273,0.498,0.787,0.78,1.317,0.78  c0.243,0,0.49-0.059,0.719-0.184c0.727-0.398,0.994-1.31,0.597-2.036c-1.1-2.009-2.376-3.944-3.796-5.752  c-0.512-0.652-1.454-0.765-2.106-0.253c-0.651,0.512-0.765,1.455-0.253,2.106C81.811,27.767,82.996,29.563,84.016,31.427z   M59.388,12.396c2.064,0.514,4.103,1.205,6.058,2.056c0.195,0.084,0.398,0.124,0.598,0.124c0.579,0,1.131-0.337,1.377-0.901  c0.33-0.76-0.019-1.644-0.777-1.975c-2.107-0.916-4.305-1.661-6.53-2.216c-0.805-0.2-1.618,0.289-1.818,1.094  C58.095,11.382,58.584,12.196,59.388,12.396z M86.609,37.268c0.699,2.012,1.234,4.095,1.592,6.194  c0.124,0.731,0.759,1.248,1.477,1.248c0.084,0,0.168-0.007,0.254-0.021c0.816-0.139,1.365-0.913,1.227-1.73  c-0.385-2.262-0.962-4.508-1.715-6.675c-0.272-0.783-1.127-1.198-1.909-0.925C86.751,35.631,86.338,36.485,86.609,37.268z   M71.081,17.482c1.785,1.159,3.487,2.477,5.061,3.915c0.288,0.264,0.65,0.394,1.013,0.394c0.406,0,0.812-0.164,1.106-0.487  c0.56-0.611,0.518-1.561-0.094-2.119c-1.695-1.55-3.529-2.969-5.451-4.218c-0.695-0.451-1.624-0.256-2.075,0.44  C70.189,16.103,70.387,17.031,71.081,17.482z M90.25,48.329c-0.828,0-1.5,0.672-1.5,1.5v0.172c0,2.138-0.176,4.283-0.521,6.376  c-0.136,0.817,0.417,1.59,1.234,1.725c0.083,0.014,0.166,0.021,0.247,0.021c0.721,0,1.356-0.521,1.478-1.255  c0.373-2.255,0.563-4.564,0.563-6.866v-0.172C91.75,49.001,91.078,48.329,90.25,48.329z M82.696,73.529  c-0.652-0.508-1.596-0.393-2.105,0.262c-1.309,1.68-2.767,3.264-4.332,4.708c-0.609,0.562-0.647,1.511-0.086,2.119  c0.296,0.321,0.698,0.483,1.103,0.483c0.364,0,0.729-0.132,1.017-0.397c1.687-1.555,3.256-3.261,4.666-5.069  C83.467,74.981,83.35,74.039,82.696,73.529z M59.55,87.565c-2.058,0.521-4.18,0.876-6.308,1.052  c-0.825,0.068-1.439,0.793-1.371,1.619c0.065,0.783,0.721,1.376,1.493,1.376c0.042,0,0.084-0.002,0.126-0.005  c2.292-0.19,4.579-0.571,6.798-1.134c0.803-0.204,1.288-1.02,1.085-1.823C61.17,87.848,60.354,87.362,59.55,87.565z M71.214,82.434  c-1.784,1.17-3.674,2.196-5.619,3.052c-0.758,0.334-1.103,1.219-0.769,1.978c0.247,0.562,0.797,0.896,1.374,0.896  c0.201,0,0.406-0.041,0.604-0.127c2.096-0.922,4.133-2.028,6.055-3.288c0.693-0.455,0.887-1.385,0.433-2.077  C72.837,82.173,71.908,81.98,71.214,82.434z M88.569,61.646c-0.784-0.271-1.636,0.148-1.905,0.933  c-0.69,2.014-1.556,3.984-2.57,5.857c-0.396,0.729-0.125,1.639,0.604,2.033c0.228,0.123,0.472,0.182,0.714,0.182  c0.532,0,1.048-0.284,1.319-0.785c1.095-2.019,2.027-4.144,2.771-6.314C89.771,62.768,89.354,61.914,88.569,61.646z M34.478,85.518  c-1.949-0.854-3.843-1.877-5.629-3.042c-0.692-0.451-1.623-0.258-2.075,0.437c-0.453,0.693-0.258,1.623,0.437,2.075  c1.923,1.256,3.964,2.358,6.064,3.278c0.195,0.086,0.399,0.126,0.601,0.126c0.578,0,1.129-0.335,1.375-0.898  C35.582,86.734,35.236,85.85,34.478,85.518z M13.362,62.656c-0.271-0.783-1.124-1.199-1.907-0.929s-1.199,1.124-0.929,1.907  c0.748,2.166,1.684,4.286,2.782,6.304c0.272,0.499,0.787,0.782,1.318,0.782c0.243,0,0.488-0.059,0.717-0.183  c0.728-0.396,0.996-1.308,0.6-2.035C14.924,66.632,14.056,64.665,13.362,62.656z M19.456,73.85  c-0.511-0.652-1.453-0.769-2.105-0.258c-0.652,0.51-0.769,1.452-0.258,2.105c1.411,1.807,2.984,3.509,4.675,5.061  c0.288,0.265,0.651,0.396,1.015,0.396c0.405,0,0.81-0.163,1.104-0.485c0.561-0.61,0.521-1.56-0.09-2.119  C22.228,77.107,20.767,75.526,19.456,73.85z M46.842,88.625c-2.128-0.172-4.251-0.521-6.311-1.038  c-0.798-0.199-1.618,0.286-1.82,1.09c-0.201,0.804,0.286,1.618,1.09,1.82c2.219,0.557,4.507,0.934,6.801,1.118  c0.041,0.003,0.081,0.005,0.122,0.005c0.773,0,1.43-0.595,1.493-1.38C48.283,89.415,47.668,88.691,46.842,88.625z M11.786,56.46  c-0.352-2.092-0.531-4.237-0.536-6.375c-0.002-0.828-0.673-1.497-1.5-1.497c-0.001,0-0.002,0-0.003,0  c-0.829,0.002-1.499,0.675-1.497,1.503c0.005,2.303,0.199,4.612,0.577,6.865c0.123,0.733,0.759,1.252,1.478,1.252  c0.083,0,0.166-0.007,0.25-0.021C11.372,58.05,11.923,57.276,11.786,56.46z"/></svg>
